<svg width="80" height="80" viewBox="0 0 80 80" fill="none" xmlns="http://www.w3.org/2000/svg">
<path d="M29.8387 49.5274C28.9635 50.1417 27.9842 50.5452 26.915 50.7331C25.7465 51.0174 24.5023 51.1595 23.1871 51.1595C19.3834 51.1595 16.3888 50.0271 14.1937 47.7577C12.0506 45.4883 10.9767 42.3708 10.9767 38.4051C10.9767 34.4394 12.0506 31.2944 14.1937 28.9791C16.4834 26.6639 19.4828 25.5086 23.1871 25.5086C26.844 25.5086 29.8387 26.6685 32.1805 28.9791C34.3756 31.3402 35.4684 34.4807 35.4684 38.4051C35.4684 40.106 35.2508 41.6648 34.8108 43.0814C34.3709 44.5439 33.6896 45.8001 32.7624 46.8362L35.5394 49.3853L34.1485 50.7331C33.6612 51.2053 33.1503 51.4071 32.611 51.3337C32.0764 51.2649 31.6364 51.0861 31.2958 50.8019L29.8387 49.5274ZM26.1864 46.1944L23.5561 43.7141L24.4313 42.7926C24.8192 42.3662 25.3443 42.1095 26.0019 42.0132C26.6595 41.9169 27.2083 42.0132 27.6483 42.2974L29.1101 43.4298C29.4508 42.8155 29.7441 42.059 29.9853 41.1605C30.0327 40.7341 30.0942 40.2986 30.1699 39.8493C30.2408 39.4 30.2787 38.9186 30.2787 38.3959C30.2787 35.7506 29.6447 33.6509 28.3768 32.0875C27.109 30.625 25.3775 29.8915 23.1871 29.8915C20.9446 29.8915 19.2131 30.625 17.9973 32.0875C16.7767 33.55 16.1712 35.6543 16.1712 38.3959C16.1712 41.1375 16.7814 43.2144 17.9973 44.631C19.2131 46.0935 20.9446 46.827 23.1871 46.827C23.9204 46.827 24.4549 46.7812 24.7956 46.6849C25.3302 46.552 25.7938 46.3869 26.1864 46.1944Z" fill="url(#paint0_linear_1_2493)"/>
<path d="M42.9385 50.206C41.7842 50.2747 40.5352 50.2564 39.1917 50.1555C37.8481 50.0547 37.1763 49.2249 37.1763 47.6661V32.7432H39.0639C39.5181 32.7432 39.9202 32.9128 40.2703 33.2521C40.6204 33.5914 40.7954 33.9948 40.7954 34.4716V36.7547H42.9433V37.4653C42.9433 37.9742 42.7682 38.3869 42.4181 38.7078C42.0681 39.0287 41.6517 39.1892 41.1597 39.1892H40.7907V46.7033C40.7907 47.281 41.1408 47.5652 41.8362 47.5652H42.9385V50.206Z" fill="url(#paint1_linear_1_2493)"/>
<path d="M52.9397 46.0431H55.5606C55.1774 47.4644 54.4441 48.5463 53.3607 49.2936C52.2774 50.073 50.9149 50.4627 49.2733 50.4627C47.2815 50.4627 45.7298 49.8346 44.6133 48.583C43.4968 47.3635 42.9386 45.6214 42.9386 43.3566C42.9386 41.1926 43.4779 39.4963 44.5613 38.2814C45.6778 37.0298 47.2342 36.4017 49.2212 36.4017C51.317 36.4017 52.9397 37.0115 54.094 38.231C55.2105 39.4826 55.7688 41.2247 55.7688 43.4574C55.7688 43.595 55.7688 43.7096 55.7688 43.815C55.7688 43.9159 55.7688 43.9847 55.7688 44.0167C55.7688 44.1864 55.7498 44.3056 55.7167 44.3743H46.6571C46.6902 45.4242 46.9551 46.2036 47.4424 46.7079C47.8966 47.2489 48.5778 47.5194 49.4861 47.5194C50.0775 47.5194 50.5884 47.4002 51.0047 47.1664C51.1088 47.1343 51.2034 47.0747 51.2933 46.9876C51.3785 46.9051 51.4778 46.8088 51.5819 46.7079C51.615 46.6071 51.7475 46.4695 51.9746 46.2999C52.2017 46.1257 52.5234 46.0431 52.9397 46.0431ZM46.6571 42.082H51.9982C51.9273 41.1697 51.686 40.4912 51.265 40.0511C50.8108 39.5788 50.1627 39.3404 49.3253 39.3404C48.5589 39.3404 47.9297 39.5788 47.4377 40.0511C46.9504 40.5279 46.6902 41.2018 46.6571 42.082Z" fill="url(#paint2_linear_1_2493)"/>
<path d="M66.0395 46.0431H68.6604C68.2772 47.4644 67.5439 48.5463 66.4605 49.2936C65.3771 50.073 64.0146 50.4627 62.373 50.4627C60.3813 50.4627 58.8296 49.8346 57.7131 48.583C56.5966 47.3635 56.0384 45.6214 56.0384 43.3566C56.0384 41.1926 56.5777 39.4963 57.6611 38.2814C58.7776 37.0298 60.334 36.4017 62.321 36.4017C64.4168 36.4017 66.0395 37.0115 67.1938 38.231C67.823 38.9737 68.2772 39.8402 68.5563 40.8213H64.8899C64.7148 40.482 64.5398 40.2299 64.3647 40.0602C63.9106 39.588 63.2672 39.3496 62.4251 39.3496C61.6539 39.3496 61.0295 39.588 60.5374 40.0602C59.9082 40.7387 59.596 41.8528 59.596 43.4116C59.596 44.9703 59.9082 46.0707 60.5374 46.7125C60.9916 47.2535 61.6729 47.524 62.5812 47.524C63.1726 47.524 63.6835 47.4048 64.0998 47.171C64.2039 47.1389 64.2985 47.0793 64.3884 46.9922C64.4735 46.9096 64.5729 46.8134 64.677 46.7125C64.7479 46.6116 64.8851 46.4741 65.098 46.3045C65.3062 46.1257 65.6184 46.0431 66.0395 46.0431Z" fill="url(#paint3_linear_1_2493)"/>
<path d="M3.54442 25.8388C3.54442 25.8388 -5.45372 40.9084 5.22389 55.217C5.22389 55.2124 -1.70213 41.156 3.54442 25.8388Z" fill="url(#paint4_linear_1_2493)"/>
<path d="M76.0027 53.2272C76.0027 53.2272 86.2025 38.5794 74.0158 24.7292C74.0205 24.7292 81.9353 38.3501 76.0027 53.2272Z" fill="url(#paint5_linear_1_2493)"/>
<path d="M72.412 60.9386C72.412 60.9386 63.991 72.1433 50.8628 71.2906C50.8628 71.2906 38.7091 71.6574 25.5999 65.1151L27.2935 60.7873C27.2935 60.7873 40.2609 67.6 49.6186 67.765C49.6186 67.765 63.1584 69.9794 72.412 60.9386Z" fill="url(#paint6_linear_1_2493)"/>
<path d="M65.5333 69.6767C65.5333 69.6767 55.1632 78.4425 39.9486 76.086C39.9486 76.086 24.4503 74.1375 8.85253 61.4977L10.8206 58.6599C10.8206 58.6599 26.0729 70.0297 35.8801 72.0515C35.8753 72.0561 49.8598 77.7456 65.5333 69.6767Z" fill="url(#paint7_linear_1_2493)"/>
<path d="M54.4771 75.8522C54.4771 75.8522 46.0845 79.5015 37.9852 78.7955C37.9852 78.7955 26.6784 77.2688 21.3798 73.7295L22.2266 71.8773C22.2266 71.8773 32.1757 76.7187 39.9485 77.443C39.9438 77.4476 49.7225 77.7089 54.4771 75.8522Z" fill="url(#paint8_linear_1_2493)"/>
<path d="M43.0095 79.8867C43.0095 79.8867 26.6595 81.3217 16.209 73.9771L17.193 72.7622C17.193 72.7622 24.015 79.011 43.0095 79.8867Z" fill="url(#paint9_linear_1_2493)"/>
<path d="M75.2268 54.3779C75.2268 54.3779 72.5349 64.9271 57.7225 66.0962C57.7225 66.0962 47.3855 66.738 34.1343 61.4153L36.3862 56.9545C36.3862 56.9545 51.7237 64.1798 65.1453 60.8422C65.1453 60.8376 70.3161 59.9115 75.2268 54.3779Z" fill="url(#paint10_linear_1_2493)"/>
<path d="M32.4833 59.6915C33.5911 59.6915 34.4892 58.8212 34.4892 57.7476C34.4892 56.674 33.5911 55.8037 32.4833 55.8037C31.3754 55.8037 30.4774 56.674 30.4774 57.7476C30.4774 58.8212 31.3754 59.6915 32.4833 59.6915Z" fill="url(#paint11_linear_1_2493)"/>
<path d="M23.5135 63.946C24.6683 63.946 25.6045 63.0387 25.6045 61.9196C25.6045 60.8004 24.6683 59.8932 23.5135 59.8932C22.3586 59.8932 21.4224 60.8004 21.4224 61.9196C21.4224 63.0387 22.3586 63.946 23.5135 63.946Z" fill="url(#paint12_linear_1_2493)"/>
<path d="M7.37643 60.4021C8.54435 60.4021 9.49114 59.4846 9.49114 58.3527C9.49114 57.2209 8.54435 56.3034 7.37643 56.3034C6.20851 56.3034 5.26173 57.2209 5.26173 58.3527C5.26173 59.4846 6.20851 60.4021 7.37643 60.4021Z" fill="url(#paint13_linear_1_2493)"/>
<path d="M20.4431 72.9457C20.9605 72.9457 21.3799 72.5393 21.3799 72.0379C21.3799 71.5366 20.9605 71.1302 20.4431 71.1302C19.9258 71.1302 19.5064 71.5366 19.5064 72.0379C19.5064 72.5393 19.9258 72.9457 20.4431 72.9457Z" fill="url(#paint14_linear_1_2493)"/>
<path d="M15.5183 73.427C16.0173 73.427 16.4219 73.0349 16.4219 72.5513C16.4219 72.0677 16.0173 71.6756 15.5183 71.6756C15.0192 71.6756 14.6147 72.0677 14.6147 72.5513C14.6147 73.0349 15.0192 73.427 15.5183 73.427Z" fill="url(#paint15_linear_1_2493)"/>
<path d="M6.92711 18.5721C6.92711 18.5721 15.5279 7.49567 28.6419 8.55013C28.6419 8.55013 40.8002 8.36674 53.8007 15.1061L52.0408 19.4065C52.0408 19.4065 39.187 12.4012 29.8293 12.0894C29.8246 12.0894 16.3226 9.67335 6.92711 18.5721Z" fill="url(#paint16_linear_1_2493)"/>
<path d="M13.9431 9.93922C13.9431 9.93922 24.4504 1.3339 39.627 3.91504C39.627 3.91504 55.0923 6.09731 70.4866 18.9709L68.476 21.7767C68.476 21.7767 53.4081 10.1776 43.6341 8.0091C43.6341 8.0091 29.7442 2.10412 13.9431 9.93922Z" fill="url(#paint17_linear_1_2493)"/>
<path d="M25.0984 3.92886C25.0984 3.92886 33.5525 0.407875 41.6376 1.2331C41.6376 1.2331 52.9207 2.92941 58.1578 6.54667L57.2826 8.3851C57.2826 8.3851 47.4092 3.39246 39.6553 2.54889C39.6553 2.55347 29.8813 2.14544 25.0984 3.92886Z" fill="url(#paint18_linear_1_2493)"/>
<path d="M36.6276 0.0686069C36.6276 0.0686069 52.9964 -1.11881 63.3287 6.3862L62.3257 7.58737C62.3257 7.58279 55.6079 1.22851 36.6276 0.0686069Z" fill="url(#paint19_linear_1_2493)"/>
<path d="M4.00347 25.0915C4.00347 25.0915 6.86566 14.5835 21.6922 13.6391C21.6922 13.6391 32.0387 13.1531 45.2047 18.6776L42.8819 23.1018C42.8819 23.1018 27.6626 15.6426 14.1891 18.7785C14.1843 18.7785 8.99929 19.6312 4.00347 25.0915Z" fill="url(#paint20_linear_1_2493)"/>
<path d="M46.7943 24.3075C47.9021 24.3075 48.8002 23.4372 48.8002 22.3636C48.8002 21.29 47.9021 20.4197 46.7943 20.4197C45.6865 20.4197 44.7884 21.29 44.7884 22.3636C44.7884 23.4372 45.6865 24.3075 46.7943 24.3075Z" fill="url(#paint21_linear_1_2493)"/>
<path d="M55.835 20.3509C56.9898 20.3509 57.926 19.4436 57.926 18.3245C57.926 17.2053 56.9898 16.2981 55.835 16.2981C54.6801 16.2981 53.7439 17.2053 53.7439 18.3245C53.7439 19.4436 54.6801 20.3509 55.835 20.3509Z" fill="url(#paint22_linear_1_2493)"/>
<path d="M71.9106 24.1881C73.0785 24.1881 74.0253 23.2706 74.0253 22.1388C74.0253 21.007 73.0785 20.0895 71.9106 20.0895C70.7426 20.0895 69.7959 21.007 69.7959 22.1388C69.7959 23.2706 70.7426 24.1881 71.9106 24.1881Z" fill="url(#paint23_linear_1_2493)"/>
<path d="M59.0662 9.16448C59.5835 9.16448 60.0029 8.75806 60.0029 8.25672C60.0029 7.75539 59.5835 7.34897 59.0662 7.34897C58.5489 7.34897 58.1295 7.75539 58.1295 8.25672C58.1295 8.75806 58.5489 9.16448 59.0662 9.16448Z" fill="url(#paint24_linear_1_2493)"/>
<path d="M63.9958 8.69671C64.4948 8.69671 64.8994 8.30466 64.8994 7.82105C64.8994 7.33743 64.4948 6.94539 63.9958 6.94539C63.4968 6.94539 63.0922 7.33743 63.0922 7.82105C63.0922 8.30466 63.4968 8.69671 63.9958 8.69671Z" fill="url(#paint25_linear_1_2493)"/>
<defs>
<linearGradient id="paint0_linear_1_2493" x1="24.9492" y1="-2.44068" x2="63.9549" y2="69.3127" gradientUnits="userSpaceOnUse">
<stop stop-color="#02D7F8"/>
<stop offset="1" stop-color="#0876FC"/>
</linearGradient>
<linearGradient id="paint1_linear_1_2493" x1="24.9492" y1="-2.44068" x2="63.9549" y2="69.3127" gradientUnits="userSpaceOnUse">
<stop stop-color="#02D7F8"/>
<stop offset="1" stop-color="#0876FC"/>
</linearGradient>
<linearGradient id="paint2_linear_1_2493" x1="24.9492" y1="-2.44068" x2="63.9549" y2="69.3127" gradientUnits="userSpaceOnUse">
<stop stop-color="#02D7F8"/>
<stop offset="1" stop-color="#0876FC"/>
</linearGradient>
<linearGradient id="paint3_linear_1_2493" x1="24.9492" y1="-2.44068" x2="63.9549" y2="69.3127" gradientUnits="userSpaceOnUse">
<stop stop-color="#02D7F8"/>
<stop offset="1" stop-color="#0876FC"/>
</linearGradient>
<linearGradient id="paint4_linear_1_2493" x1="24.9492" y1="-2.44068" x2="63.9549" y2="69.3127" gradientUnits="userSpaceOnUse">
<stop stop-color="#02D7F8"/>
<stop offset="1" stop-color="#0876FC"/>
</linearGradient>
<linearGradient id="paint5_linear_1_2493" x1="24.9492" y1="-2.44068" x2="63.9549" y2="69.3127" gradientUnits="userSpaceOnUse">
<stop stop-color="#02D7F8"/>
<stop offset="1" stop-color="#0876FC"/>
</linearGradient>
<linearGradient id="paint6_linear_1_2493" x1="24.9492" y1="-2.44068" x2="63.9549" y2="69.3127" gradientUnits="userSpaceOnUse">
<stop stop-color="#02D7F8"/>
<stop offset="1" stop-color="#0876FC"/>
</linearGradient>
<linearGradient id="paint7_linear_1_2493" x1="24.9492" y1="-2.44068" x2="63.9549" y2="69.3127" gradientUnits="userSpaceOnUse">
<stop stop-color="#02D7F8"/>
<stop offset="1" stop-color="#0876FC"/>
</linearGradient>
<linearGradient id="paint8_linear_1_2493" x1="24.9492" y1="-2.44068" x2="63.9549" y2="69.3127" gradientUnits="userSpaceOnUse">
<stop stop-color="#02D7F8"/>
<stop offset="1" stop-color="#0876FC"/>
</linearGradient>
<linearGradient id="paint9_linear_1_2493" x1="24.9492" y1="-2.44068" x2="63.9549" y2="69.3127" gradientUnits="userSpaceOnUse">
<stop stop-color="#02D7F8"/>
<stop offset="1" stop-color="#0876FC"/>
</linearGradient>
<linearGradient id="paint10_linear_1_2493" x1="24.9492" y1="-2.44068" x2="63.9549" y2="69.3127" gradientUnits="userSpaceOnUse">
<stop stop-color="#02D7F8"/>
<stop offset="1" stop-color="#0876FC"/>
</linearGradient>
<linearGradient id="paint11_linear_1_2493" x1="24.9492" y1="-2.44068" x2="63.9549" y2="69.3127" gradientUnits="userSpaceOnUse">
<stop stop-color="#02D7F8"/>
<stop offset="1" stop-color="#0876FC"/>
</linearGradient>
<linearGradient id="paint12_linear_1_2493" x1="24.9492" y1="-2.44068" x2="63.9549" y2="69.3127" gradientUnits="userSpaceOnUse">
<stop stop-color="#02D7F8"/>
<stop offset="1" stop-color="#0876FC"/>
</linearGradient>
<linearGradient id="paint13_linear_1_2493" x1="24.9492" y1="-2.44068" x2="63.9549" y2="69.3127" gradientUnits="userSpaceOnUse">
<stop stop-color="#02D7F8"/>
<stop offset="1" stop-color="#0876FC"/>
</linearGradient>
<linearGradient id="paint14_linear_1_2493" x1="24.9492" y1="-2.44068" x2="63.9549" y2="69.3127" gradientUnits="userSpaceOnUse">
<stop stop-color="#02D7F8"/>
<stop offset="1" stop-color="#0876FC"/>
</linearGradient>
<linearGradient id="paint15_linear_1_2493" x1="24.9492" y1="-2.44068" x2="63.9549" y2="69.3127" gradientUnits="userSpaceOnUse">
<stop stop-color="#02D7F8"/>
<stop offset="1" stop-color="#0876FC"/>
</linearGradient>
<linearGradient id="paint16_linear_1_2493" x1="24.9492" y1="-2.44068" x2="63.9549" y2="69.3127" gradientUnits="userSpaceOnUse">
<stop stop-color="#02D7F8"/>
<stop offset="1" stop-color="#0876FC"/>
</linearGradient>
<linearGradient id="paint17_linear_1_2493" x1="24.9492" y1="-2.44068" x2="63.9549" y2="69.3127" gradientUnits="userSpaceOnUse">
<stop stop-color="#02D7F8"/>
<stop offset="1" stop-color="#0876FC"/>
</linearGradient>
<linearGradient id="paint18_linear_1_2493" x1="24.9492" y1="-2.44068" x2="63.9549" y2="69.3127" gradientUnits="userSpaceOnUse">
<stop stop-color="#02D7F8"/>
<stop offset="1" stop-color="#0876FC"/>
</linearGradient>
<linearGradient id="paint19_linear_1_2493" x1="24.9492" y1="-2.44068" x2="63.9549" y2="69.3127" gradientUnits="userSpaceOnUse">
<stop stop-color="#02D7F8"/>
<stop offset="1" stop-color="#0876FC"/>
</linearGradient>
<linearGradient id="paint20_linear_1_2493" x1="24.9492" y1="-2.44068" x2="63.9549" y2="69.3127" gradientUnits="userSpaceOnUse">
<stop stop-color="#02D7F8"/>
<stop offset="1" stop-color="#0876FC"/>
</linearGradient>
<linearGradient id="paint21_linear_1_2493" x1="24.9492" y1="-2.44068" x2="63.9549" y2="69.3127" gradientUnits="userSpaceOnUse">
<stop stop-color="#02D7F8"/>
<stop offset="1" stop-color="#0876FC"/>
</linearGradient>
<linearGradient id="paint22_linear_1_2493" x1="24.9492" y1="-2.44068" x2="63.9549" y2="69.3127" gradientUnits="userSpaceOnUse">
<stop stop-color="#02D7F8"/>
<stop offset="1" stop-color="#0876FC"/>
</linearGradient>
<linearGradient id="paint23_linear_1_2493" x1="24.9492" y1="-2.44068" x2="63.9549" y2="69.3127" gradientUnits="userSpaceOnUse">
<stop stop-color="#02D7F8"/>
<stop offset="1" stop-color="#0876FC"/>
</linearGradient>
<linearGradient id="paint24_linear_1_2493" x1="24.9492" y1="-2.44068" x2="63.9549" y2="69.3127" gradientUnits="userSpaceOnUse">
<stop stop-color="#02D7F8"/>
<stop offset="1" stop-color="#0876FC"/>
</linearGradient>
<linearGradient id="paint25_linear_1_2493" x1="24.9492" y1="-2.44068" x2="63.9549" y2="69.3127" gradientUnits="userSpaceOnUse">
<stop stop-color="#02D7F8"/>
<stop offset="1" stop-color="#0876FC"/>
</linearGradient>
</defs>
</svg>
